# Blender 4.1.0
# www.blender.org
mtllib BWRoom-celing.mtl
o Plane
v -0.750771 4.711276 4.365196
v -0.750771 4.711275 -2.640453
v 3.364811 4.711275 -2.640453
v -0.750771 4.711275 0.977736
v 2.182870 4.711276 4.365196
v 3.433804 4.711275 1.055813
v 1.964328 4.711275 -2.640453
v 2.113877 4.711275 1.058072
vn -0.0000 -1.0000 -0.0000
vt 0.500000 0.500000
vt 0.500000 1.000000
vt 1.000000 1.000000
vt 1.000000 0.500000
vt 0.000000 0.500000
vt 0.000000 1.000000
vt 0.000000 0.000000
vt 0.500000 0.000000
s 1
usemtl Material.001
f 8/1/1 7/2/1 3/3/1 6/4/1
f 4/5/1 2/6/1 7/2/1 8/1/1
f 1/7/1 4/5/1 8/1/1 5/8/1
